<svg width="24" height="24" viewBox="0 0 24 24" fill="none" xmlns="http://www.w3.org/2000/svg">
<path fill-rule="evenodd" clip-rule="evenodd" d="M16.2004 5.92556C17.683 6.78202 18.8685 8.0711 19.598 9.62012C20.3275 11.1691 20.5663 12.9041 20.2823 14.5926C19.9982 16.2811 19.205 17.8424 18.0088 19.0675C16.8126 20.2926 15.2707 21.1229 13.5894 21.4472C11.9082 21.7714 10.168 21.5742 8.60205 20.8818C7.03606 20.1895 5.71904 19.0351 4.82742 17.5734C3.93581 16.1116 3.51218 14.4123 3.6133 12.7031C3.71441 10.9939 4.33544 9.35638 5.39318 8.00996C5.63558 7.70156 6.10118 7.74836 6.34478 8.05676C6.67838 8.47916 7.05758 8.86316 7.47638 9.20156C7.87478 9.52436 8.41958 9.14276 8.40398 8.63036C8.36566 7.48783 8.601 6.35269 9.09038 5.31956C9.73086 3.9712 10.7729 2.85409 12.0736 2.12156C12.37 1.95356 12.7336 2.10236 12.886 2.40716C13.6202 3.88072 14.7732 5.10469 16.2004 5.92556ZM16.8004 14.4C16.8004 15.673 16.2947 16.8939 15.3945 17.7941C14.4943 18.6942 13.2734 19.2 12.0004 19.2C9.70478 19.2 7.77638 17.5224 7.30838 15.3816C7.19678 14.8668 7.83638 14.61 8.28518 14.886C8.87047 15.245 9.5253 15.4756 10.2064 15.5628C10.57 15.6084 10.8436 15.2748 10.8184 14.91C10.6864 13.0936 11.2506 11.2951 12.3964 9.87956C12.4571 9.80371 12.5373 9.74579 12.6284 9.71197C12.7195 9.67815 12.8181 9.66972 12.9136 9.68756C14.0077 9.89982 14.9939 10.4861 15.7031 11.3459C16.4122 12.2057 16.8002 13.2854 16.8004 14.4Z" fill="#EF4444"/>
</svg>
