<svg width="141" height="135" viewBox="0 0 141 135" fill="none" xmlns="http://www.w3.org/2000/svg">
<path d="M141 25.707L101.242 39.9074L116.883 0H107.909L82.4193 29.5336L77.2489 0H65.8541L60.6854 29.5336L35.1952 0H26.2221L41.8628 39.9074L0 24.9544V33.4949L30.9958 57.8757L0 62.8194V73.678L30.9958 78.6232L0 103.002V111.543L41.8628 96.59L26.8081 135H36.4866L60.6854 106.964L65.5935 135H77.5112L82.4193 106.964L106.618 135H116.295L101.242 96.59L141 110.792V101.347L112.107 78.6232L141 74.0139V62.4835L112.107 57.8757L141 35.1507V25.707Z" fill="#FFDFDF"/>
</svg>
