<svg width="128" height="128" viewBox="0 0 128 128" fill="none" xmlns="http://www.w3.org/2000/svg">
<path d="M4.48676 37.6391V42.1259H13.7096V49.6039H18.1964V42.1259H29.6626V49.6039H34.1494V42.1259H45.6156V49.6039H50.1024V42.1259H61.5686V49.6039H66.0554V42.1259H77.5216V49.6039H82.0084V42.1259H93.4746V49.6039H97.9614V42.1259H109.428V49.6039H113.914V42.1259H123.137V37.6391H4.48676ZM4.48676 54.0906V61.5686H10.2199V106.212C12.2015 105.763 14.1832 105.439 15.953 105.439C19.2383 105.439 22.1098 106.586 24.7271 107.583C25.0512 107.708 25.3503 107.832 25.6743 107.932V70.8662L34.947 61.5686H92.652L101.95 70.7167V107.932C102.274 107.832 102.573 107.708 102.897 107.583C105.514 106.586 108.381 105.439 111.671 105.439C113.441 105.439 115.435 105.763 117.404 106.212V61.5686H123.137V54.0906H4.48676ZM15.953 110.425C11.8301 110.624 8.01636 111.746 4.48676 112.768V117.454C5.13235 117.255 5.8303 117.03 6.56812 116.806C9.78864 115.834 13.7545 114.911 15.953 114.911C18.1515 114.911 20.5145 115.759 23.1318 116.756C25.7491 117.753 28.6157 118.9 31.906 118.9C35.1963 118.9 38.0628 117.753 40.6801 116.756C43.2974 115.759 45.6654 114.911 47.859 114.911C50.0525 114.911 52.4205 115.759 55.0378 116.756C57.6551 117.753 60.5217 118.9 63.812 118.9C67.1023 118.9 69.9688 117.753 72.5861 116.756C75.2034 115.759 77.5714 114.911 79.765 114.911C81.9585 114.911 84.3265 115.759 86.9438 116.756C89.5611 117.753 92.4277 118.9 95.718 118.9C99.0083 118.9 101.875 117.753 104.492 116.756C107.109 115.759 109.477 114.911 111.671 114.911C113.865 114.911 117.828 115.834 121.043 116.806C121.791 117.03 122.489 117.255 123.137 117.454V112.768C119.448 111.771 115.161 110.475 111.671 110.425C108.381 110.425 105.514 111.571 102.897 112.568C100.28 113.565 97.9115 114.413 95.718 114.413C93.5245 114.413 91.1564 113.565 88.5391 112.568C85.9219 111.571 83.0553 110.425 79.765 110.425C76.4747 110.425 73.6081 111.571 70.9908 112.568C68.3735 113.565 66.0055 114.413 63.812 114.413C61.6184 114.413 59.2504 113.565 56.6331 112.568C54.0158 111.571 51.1493 110.425 47.859 110.425C44.5687 110.425 41.7021 111.571 39.0848 112.568C36.4675 113.565 34.0995 114.413 31.906 114.413C29.7124 114.413 27.3444 113.565 24.7271 112.568C22.1098 111.571 19.2383 110.425 15.953 110.425Z" fill="#FF00FF"/>
</svg>
