<svg width="21" height="24" viewBox="0 0 21 24" fill="none" xmlns="http://www.w3.org/2000/svg">
<path d="M14.4002 1.49698L13.7474 4.03951L16.2379 4.67897L15.5851 7.2215L18.0756 7.86097L17.4228 10.4035L19.9133 11.043L19.0118 14.5541L15.5527 13.6659L16.2055 11.1234L13.715 10.4839L14.3678 7.94139L12.8459 7.55062L8.92895 22.8058L5.46892 21.9174L9.38585 6.66222L7.86392 6.27145L7.2111 8.81398L4.7206 8.17451L4.06778 10.717L0.60869 9.82888L1.51021 6.31777L4.00071 6.95724L4.65353 4.41471L7.14404 5.05417L7.79686 2.51165L10.2874 3.15111L10.9402 0.608581L14.4002 1.49698Z" fill="#4EA833" stroke="black"/>
</svg>
