<svg width="20" height="20" viewBox="0 0 20 20" fill="none" xmlns="http://www.w3.org/2000/svg">
<path d="M7.49667 3.90667L9.89667 2.52917C9.93037 2.51019 9.9684 2.50021 10.0071 2.50021C10.0458 2.50021 10.0838 2.51019 10.1175 2.52917L16.445 6.16167C16.5108 6.19917 16.5617 6.27417 16.5617 6.34917V8.8475C16.5617 8.92667 16.52 9.00167 16.45 9.035L14.0592 10.4125C13.9092 10.5017 13.75 10.3942 13.75 10.225V7.985C13.75 7.905 13.67 7.835 13.6042 7.7975L7.49667 4.29084C7.46268 4.27169 7.4344 4.24385 7.41472 4.21017C7.39504 4.17649 7.38467 4.13818 7.38467 4.09917C7.38467 4.06016 7.39504 4.02185 7.41472 3.98817C7.4344 3.95449 7.46268 3.92582 7.49667 3.90667ZM5.94583 15.2175L3.55 13.8392C3.51685 13.8201 3.48913 13.7928 3.46944 13.76C3.44976 13.7272 3.43876 13.6899 3.4375 13.6517V6.38667C3.4375 6.31167 3.48 6.23667 3.55 6.19917L5.72083 4.94167C5.75416 4.92203 5.79215 4.91167 5.83083 4.91167C5.86952 4.91167 5.9075 4.92203 5.94083 4.94167L8.33583 6.315C8.48583 6.40417 8.48583 6.615 8.33583 6.7L6.39167 7.825C6.32167 7.86667 6.25083 7.93667 6.25083 8.01167V15.0283C6.25083 15.1975 6.09667 15.3008 5.94667 15.2167M16.5633 13.6458C16.5638 13.6851 16.5536 13.7238 16.5337 13.7577C16.5139 13.7916 16.4853 13.8195 16.4508 13.8383L10.1558 17.4717C10.123 17.4905 10.0858 17.5005 10.0479 17.5005C10.01 17.5005 9.97284 17.4905 9.94 17.4717L7.77 16.2292C7.73618 16.2106 7.70793 16.1834 7.68815 16.1503C7.66838 16.1172 7.65779 16.0794 7.6575 16.0408V13.2808C7.6575 13.1117 7.845 13.0042 7.985 13.0933L9.935 14.2042C10.0008 14.2417 10.085 14.2417 10.1558 14.2042L16.2308 10.6975C16.2639 10.6784 16.3014 10.6683 16.3396 10.6682C16.3778 10.6682 16.4153 10.6781 16.4485 10.6971C16.4816 10.7161 16.5092 10.7434 16.5285 10.7764C16.5478 10.8094 16.5581 10.8468 16.5583 10.885H16.5633V13.6458Z" fill="#262626"/>
</svg>
