<svg width="24" height="24" viewBox="0 0 24 24" fill="none" xmlns="http://www.w3.org/2000/svg">
<path d="M17.3333 9.33333H6.66667C6.29848 9.33333 6 9.63181 6 9.99999V11.3333C6 11.7015 6.29848 12 6.66667 12H17.3333C17.7015 12 18 11.7015 18 11.3333V9.99999C18 9.63181 17.7015 9.33333 17.3333 9.33333Z" stroke="#404040" stroke-width="1.33333" stroke-linecap="round" stroke-linejoin="round"/>
<path d="M12 9.33333V18" stroke="#404040" stroke-width="1.33333" stroke-linecap="round" stroke-linejoin="round"/>
<path d="M16.6666 12V16.6667C16.6666 17.0203 16.5262 17.3594 16.2761 17.6095C16.0261 17.8595 15.6869 18 15.3333 18H8.66665C8.31302 18 7.97389 17.8595 7.72384 17.6095C7.47379 17.3594 7.33331 17.0203 7.33331 16.6667V12" stroke="#404040" stroke-width="1.33333" stroke-linecap="round" stroke-linejoin="round"/>
<path d="M8.99998 9.33362C8.55795 9.33362 8.13403 9.15803 7.82147 8.84547C7.50891 8.53291 7.33331 8.10899 7.33331 7.66696C7.33331 7.22493 7.50891 6.80101 7.82147 6.48845C8.13403 6.17589 8.55795 6.00029 8.99998 6.00029C9.6431 5.98909 10.2733 6.30113 10.8085 6.89573C11.3436 7.49033 11.7588 8.33989 12 9.33362C12.2411 8.33989 12.6563 7.49033 13.1915 6.89573C13.7266 6.30113 14.3569 5.98909 15 6.00029C15.442 6.00029 15.8659 6.17589 16.1785 6.48845C16.4911 6.80101 16.6666 7.22493 16.6666 7.66696C16.6666 8.10899 16.4911 8.53291 16.1785 8.84547C15.8659 9.15803 15.442 9.33362 15 9.33362" stroke="#404040" stroke-width="1.33333" stroke-linecap="round" stroke-linejoin="round"/>
</svg>
