<svg width="222" height="21" viewBox="0 0 222 21" fill="none" xmlns="http://www.w3.org/2000/svg">
<g opacity="0.5">
<rect width="10.0834" height="10.0834" fill="#49009C"/>
<rect x="10.0834" y="10.0834" width="10.0834" height="10.0834" fill="#49009C"/>
<rect x="20.1667" width="10.0834" height="10.0834" fill="#49009C"/>
<rect x="30.2501" y="10.0834" width="10.0834" height="10.0834" fill="#49009C"/>
<rect x="40.3335" width="10.0834" height="10.0834" fill="#49009C"/>
<rect x="50.4169" y="10.0834" width="10.0834" height="10.0834" fill="#49009C"/>
<rect x="60.5003" width="10.0834" height="10.0834" fill="#49009C"/>
<rect x="70.5836" y="10.0834" width="10.0834" height="10.0834" fill="#49009C"/>
<rect x="80.6671" width="10.0834" height="10.0834" fill="#49009C"/>
<rect x="90.7504" y="10.0834" width="10.0834" height="10.0834" fill="#49009C"/>
<rect x="100.834" width="10.0834" height="10.0834" fill="#49009C"/>
<rect x="110.917" y="10.0834" width="10.0834" height="10.0834" fill="#49009C"/>
<rect x="121.001" width="10.0834" height="10.0834" fill="#49009C"/>
<rect x="131.084" y="10.0834" width="10.0834" height="10.0834" fill="#49009C"/>
<rect x="141.167" width="10.0834" height="10.0834" fill="#49009C"/>
<rect x="151.251" y="10.0834" width="10.0834" height="10.0834" fill="#49009C"/>
<rect x="161.334" width="10.0834" height="10.0834" fill="#49009C"/>
<rect x="171.417" y="10.0834" width="10.0834" height="10.0834" fill="#49009C"/>
<rect x="181.501" width="10.0834" height="10.0834" fill="#49009C"/>
<rect x="191.584" y="10.0834" width="10.0834" height="10.0834" fill="#49009C"/>
<rect x="201.668" width="10.0834" height="10.0834" fill="#49009C"/>
<rect x="211.751" y="10.0834" width="10.0834" height="10.0834" fill="#49009C"/>
</g>
</svg>
