<svg width="13" height="17" viewBox="0 0 13 17" fill="none" xmlns="http://www.w3.org/2000/svg">
<path fill-rule="evenodd" clip-rule="evenodd" d="M6.3 0C5.22587 0 4.19574 0.426695 3.43622 1.18622C2.6767 1.94574 2.25 2.97587 2.25 4.05V7.2H1.8C1.32261 7.2 0.864773 7.38964 0.527208 7.72721C0.189642 8.06477 0 8.52261 0 9V14.4C0 14.8774 0.189642 15.3352 0.527208 15.6728C0.864773 16.0104 1.32261 16.2 1.8 16.2H10.8C11.2774 16.2 11.7352 16.0104 12.0728 15.6728C12.4104 15.3352 12.6 14.8774 12.6 14.4V9C12.6 8.52261 12.4104 8.06477 12.0728 7.72721C11.7352 7.38964 11.2774 7.2 10.8 7.2H10.35V4.05C10.35 2.97587 9.9233 1.94574 9.16378 1.18622C8.40426 0.426695 7.37413 0 6.3 0ZM9 7.2V4.05C9 3.33392 8.71554 2.64716 8.20919 2.14081C7.70284 1.63446 7.01608 1.35 6.3 1.35C5.58392 1.35 4.89716 1.63446 4.39081 2.14081C3.88446 2.64716 3.6 3.33392 3.6 4.05V7.2H9Z" fill="white"/>
</svg>
