<svg width="24" height="24" viewBox="0 0 24 24" fill="none" xmlns="http://www.w3.org/2000/svg">
<path d="M7.55999 3.40805C7.28759 3.2363 6.97409 3.14078 6.6522 3.13143C6.33031 3.12209 6.01181 3.19928 5.72991 3.35494C5.448 3.5106 5.21302 3.73903 5.04945 4.01643C4.88589 4.29383 4.79974 4.61002 4.79999 4.93205V19.068C4.79974 19.3901 4.88589 19.7063 5.04945 19.9837C5.21302 20.2611 5.448 20.4895 5.72991 20.6452C6.01181 20.8008 6.33031 20.878 6.6522 20.8687C6.97409 20.8593 7.28759 20.7638 7.55999 20.592L18.7728 13.5228C19.0301 13.3607 19.2421 13.136 19.3891 12.8697C19.536 12.6034 19.6131 12.3042 19.6131 12C19.6131 11.6959 19.536 11.3967 19.3891 11.1304C19.2421 10.8641 19.0301 10.6394 18.7728 10.4772L7.55999 3.40925V3.40805Z" fill="#16A34A"/>
</svg>
