<svg width="30" height="30" viewBox="0 0 30 30" fill="none" xmlns="http://www.w3.org/2000/svg">
<path d="M6 0.5H24C27.0376 0.5 29.5 2.96243 29.5 6V24C29.5 27.0376 27.0376 29.5 24 29.5H6C2.96243 29.5 0.5 27.0376 0.5 24V6C0.5 2.96243 2.96243 0.5 6 0.5Z" fill="#F4F4F5"/>
<path d="M6 0.5H24C27.0376 0.5 29.5 2.96243 29.5 6V24C29.5 27.0376 27.0376 29.5 24 29.5H6C2.96243 29.5 0.5 27.0376 0.5 24V6C0.5 2.96243 2.96243 0.5 6 0.5Z" stroke="#D4D4D4"/>
<path d="M9.75 18.25H6V22H9.75V18.25Z" fill="#71717B"/>
<path d="M13.5 7H9.75V10.75H13.5V7Z" fill="#71717B"/>
<path d="M13.5 10.75H9.75V14.5H13.5V10.75Z" fill="#71717B"/>
<path d="M13.5 14.5H9.75V18.25H13.5V14.5Z" fill="#71717B"/>
<path d="M17.25 14.5H13.5V18.25H17.25V14.5Z" fill="#71717B"/>
<path d="M17.25 18.25H13.5V22H17.25V18.25Z" fill="#71717B"/>
<path d="M24.75 18.25H21V22H24.75V18.25Z" fill="#71717B"/>
<path d="M21 7H17.25V10.75H21V7Z" fill="#71717B"/>
<path d="M21 10.75H17.25V14.5H21V10.75Z" fill="#71717B"/>
<path d="M21 14.5H17.25V18.25H21V14.5Z" fill="#71717B"/>
</svg>
