<svg width="24" height="24" viewBox="0 0 24 24" fill="none" xmlns="http://www.w3.org/2000/svg">
<path d="M10.2506 0.713068C11.2267 -0.237689 12.7825 -0.237689 13.7586 0.713068C14.3851 1.32328 15.2837 1.56405 16.1313 1.34883C17.452 1.0135 18.7994 1.79143 19.1694 3.10286C19.4068 3.94455 20.0646 4.60235 20.9063 4.83979C22.2177 5.20973 22.9957 6.55715 22.6603 7.87786C22.4451 8.7255 22.6859 9.62407 23.2961 10.2506C24.2469 11.2267 24.2469 12.7825 23.2961 13.7586C22.6859 14.3851 22.4451 15.2837 22.6603 16.1313C22.9957 17.452 22.2177 18.7994 20.9063 19.1694C20.0646 19.4068 19.4068 20.0646 19.1694 20.9063C18.7994 22.2177 17.452 22.9957 16.1313 22.6603C15.2837 22.4451 14.3851 22.6859 13.7586 23.2961C12.7825 24.2469 11.2267 24.2469 10.2506 23.2961C9.62407 22.6859 8.7255 22.4451 7.87786 22.6603C6.55715 22.9957 5.20973 22.2177 4.83979 20.9063C4.60235 20.0646 3.94455 19.4068 3.10286 19.1694C1.79143 18.7994 1.0135 17.452 1.34883 16.1313C1.56405 15.2837 1.32328 14.3851 0.713068 13.7586C-0.237689 12.7825 -0.237689 11.2267 0.713068 10.2506C1.32328 9.62407 1.56405 8.7255 1.34883 7.87786C1.0135 6.55715 1.79143 5.20973 3.10286 4.83979C3.94455 4.60235 4.60235 3.94455 4.83979 3.10286C5.20973 1.79143 6.55715 1.0135 7.87786 1.34883C8.7255 1.56405 9.62407 1.32328 10.2506 0.713068Z" fill="url(#paint0_radial_1_3076)"/>
<defs>
<radialGradient id="paint0_radial_1_3076" cx="0" cy="0" r="1" gradientUnits="userSpaceOnUse" gradientTransform="translate(12.0046 12.0046) rotate(90) scale(13)">
<stop offset="0.318313" stop-color="#B08033"/>
<stop offset="1" stop-color="#DD921B"/>
</radialGradient>
</defs>
</svg>
