<svg width="20" height="20" viewBox="0 0 20 20" fill="none" xmlns="http://www.w3.org/2000/svg">
<path fill-rule="evenodd" clip-rule="evenodd" d="M5.26667 2.1472C8.41166 1.78209 11.5883 1.78209 14.7333 2.1472C15.9808 2.2922 16.875 3.36387 16.875 4.58887V17.4997C16.8749 17.6061 16.8475 17.7108 16.7956 17.8037C16.7437 17.8966 16.6689 17.9747 16.5784 18.0306C16.4878 18.0865 16.3845 18.1184 16.2782 18.1232C16.1718 18.128 16.0661 18.1056 15.9708 18.058L10 15.0739L4.02917 18.0597C3.93382 18.1073 3.82788 18.1297 3.72142 18.1249C3.61496 18.12 3.51151 18.088 3.42091 18.0319C3.33031 17.9757 3.25556 17.8974 3.20377 17.8042C3.15198 17.7111 3.12486 17.6063 3.125 17.4997V4.58887C3.125 3.36387 4.01917 2.2922 5.26667 2.1472Z" fill="#71717B"/>
</svg>
