<svg width="18" height="17" viewBox="0 0 18 17" fill="none" xmlns="http://www.w3.org/2000/svg">
<path d="M8.60852 0.5C8.82513 0.5 9.01717 0.639692 9.08411 0.845703L10.7677 6.02832H16.2169C16.4334 6.02832 16.6255 6.16719 16.6925 6.37305C16.7594 6.57906 16.6861 6.8053 16.5109 6.93262L12.1017 10.1348L13.7863 15.3174C13.8532 15.5234 13.7799 15.7496 13.6046 15.877C13.4294 16.0041 13.1919 16.0042 13.0167 15.877L8.60852 12.6729L4.20032 15.877C4.02514 16.0042 3.78764 16.0041 3.61243 15.877C3.43718 15.7496 3.36385 15.5234 3.43079 15.3174L5.11438 10.1348L0.706177 6.93262C0.530933 6.8053 0.457599 6.57906 0.524536 6.37305C0.591556 6.16719 0.783606 6.02832 1.00012 6.02832H6.44934L8.13293 0.845703C8.19987 0.639692 8.39191 0.5 8.60852 0.5Z" fill="#FFD436" stroke="black" stroke-linejoin="round"/>
</svg>
