<svg width="20" height="20" viewBox="0 0 20 20" fill="none" xmlns="http://www.w3.org/2000/svg">
<path fill-rule="evenodd" clip-rule="evenodd" d="M7.50036 3.75C7.63617 3.75003 7.76827 3.79429 7.87667 3.87608C7.98508 3.95788 8.0639 4.07275 8.1012 4.20333L8.7787 6.575C8.92457 7.08577 9.19824 7.55092 9.57384 7.92652C9.94945 8.30213 10.4146 8.57579 10.9254 8.72167L13.297 9.39917C13.4275 9.43655 13.5423 9.5154 13.624 9.6238C13.7057 9.7322 13.7499 9.86426 13.7499 10C13.7499 10.1357 13.7057 10.2678 13.624 10.3762C13.5423 10.4846 13.4275 10.5635 13.297 10.6008L10.9254 11.2783C10.4146 11.4242 9.94945 11.6979 9.57384 12.0735C9.19824 12.4491 8.92457 12.9142 8.7787 13.425L8.1012 15.7967C8.06381 15.9272 7.98496 16.0419 7.87656 16.1236C7.76816 16.2054 7.63611 16.2496 7.50036 16.2496C7.36462 16.2496 7.23256 16.2054 7.12417 16.1236C7.01577 16.0419 6.93691 15.9272 6.89953 15.7967L6.22203 13.425C6.07616 12.9142 5.80249 12.4491 5.42689 12.0735C5.05128 11.6979 4.58613 11.4242 4.07536 11.2783L1.7037 10.6008C1.5732 10.5635 1.45842 10.4846 1.37672 10.3762C1.29501 10.2678 1.25081 10.1357 1.25081 10C1.25081 9.86426 1.29501 9.7322 1.37672 9.6238C1.45842 9.5154 1.5732 9.43655 1.7037 9.39917L4.07536 8.72167C4.58613 8.57579 5.05128 8.30213 5.42689 7.92652C5.80249 7.55092 6.07616 7.08577 6.22203 6.575L6.89953 4.20333C6.93683 4.07275 7.01565 3.95788 7.12406 3.87608C7.23246 3.79429 7.36456 3.75003 7.50036 3.75ZM15.0004 1.25C15.1398 1.24992 15.2752 1.29647 15.3852 1.38224C15.4951 1.46801 15.5732 1.58807 15.607 1.72333L15.822 2.58667C16.0187 3.37 16.6304 3.98167 17.4137 4.17833L18.277 4.39333C18.4126 4.4269 18.5329 4.50488 18.619 4.61483C18.705 4.72479 18.7518 4.86038 18.7518 5C18.7518 5.13962 18.705 5.27521 18.619 5.38517C18.5329 5.49512 18.4126 5.5731 18.277 5.60667L17.4137 5.82167C16.6304 6.01833 16.0187 6.63 15.822 7.41333L15.607 8.27667C15.5735 8.41219 15.4955 8.53257 15.3855 8.61861C15.2756 8.70465 15.14 8.7514 15.0004 8.7514C14.8607 8.7514 14.7252 8.70465 14.6152 8.61861C14.5052 8.53257 14.4273 8.41219 14.3937 8.27667L14.1787 7.41333C14.0825 7.02869 13.8837 6.67742 13.6033 6.39706C13.3229 6.11671 12.9717 5.91782 12.587 5.82167L11.7237 5.60667C11.5882 5.5731 11.4678 5.49512 11.3818 5.38517C11.2957 5.27521 11.249 5.13962 11.249 5C11.249 4.86038 11.2957 4.72479 11.3818 4.61483C11.4678 4.50488 11.5882 4.4269 11.7237 4.39333L12.587 4.17833C12.9717 4.08218 13.3229 3.88329 13.6033 3.60294C13.8837 3.32258 14.0825 2.97131 14.1787 2.58667L14.3937 1.72333C14.4275 1.58807 14.5056 1.46801 14.6156 1.38224C14.7255 1.29647 14.8609 1.24992 15.0004 1.25ZM13.7504 12.5C13.8816 12.4999 14.0096 12.5412 14.1161 12.6179C14.2226 12.6946 14.3022 12.803 14.3437 12.9275L14.672 13.9133C14.797 14.2858 15.0887 14.5792 15.462 14.7033L16.4479 15.0325C16.572 15.0742 16.6799 15.1538 16.7564 15.2601C16.8328 15.3664 16.8739 15.4941 16.8739 15.625C16.8739 15.7559 16.8328 15.8836 16.7564 15.9899C16.6799 16.0962 16.572 16.1758 16.4479 16.2175L15.462 16.5467C15.0895 16.6717 14.7962 16.9633 14.672 17.3367L14.3429 18.3225C14.3012 18.4466 14.2216 18.5546 14.1153 18.631C14.009 18.7075 13.8813 18.7486 13.7504 18.7486C13.6194 18.7486 13.4918 18.7075 13.3855 18.631C13.2792 18.5546 13.1995 18.4466 13.1579 18.3225L12.8287 17.3367C12.7673 17.1527 12.664 16.9856 12.5269 16.8485C12.3898 16.7114 12.2226 16.6081 12.0387 16.5467L11.0529 16.2175C10.9287 16.1758 10.8208 16.0962 10.7444 15.9899C10.6679 15.8836 10.6268 15.7559 10.6268 15.625C10.6268 15.4941 10.6679 15.3664 10.7444 15.2601C10.8208 15.1538 10.9287 15.0742 11.0529 15.0325L12.0387 14.7033C12.4112 14.5783 12.7045 14.2867 12.8287 13.9133L13.1579 12.9275C13.1993 12.8031 13.2788 12.6949 13.3851 12.6182C13.4915 12.5414 13.6192 12.5001 13.7504 12.5Z" fill="#09090B"/>
</svg>
