<svg width="10" height="10" viewBox="0 0 10 10" fill="none" xmlns="http://www.w3.org/2000/svg">
<path d="M4.80432 0.5C5.02093 0.5 5.21297 0.639692 5.27991 0.845703L6.06604 3.26367H8.60901C8.82537 3.26387 9.01668 3.40361 9.08362 3.60938C9.15056 3.81539 9.07722 4.04065 8.90198 4.16797L6.84534 5.66309L7.63147 8.08203C7.69805 8.28778 7.62471 8.51338 7.44983 8.64062C7.27467 8.76788 7.03716 8.76775 6.86194 8.64062L4.80432 7.14551L2.7467 8.64062C2.57149 8.76775 2.33397 8.76788 2.15881 8.64062C1.98394 8.51338 1.91059 8.28778 1.97717 8.08203L2.76233 5.66309L0.706665 4.16797C0.531421 4.04065 0.458087 3.81539 0.525024 3.60938C0.591967 3.40361 0.783272 3.26387 0.999634 3.26367H3.5426L4.32874 0.845703C4.39567 0.639692 4.58771 0.5 4.80432 0.5Z" fill="#FFD436" stroke="black" stroke-linejoin="round"/>
</svg>
