<svg width="128" height="128" viewBox="0 0 128 128" fill="none" xmlns="http://www.w3.org/2000/svg">
<path fill-rule="evenodd" clip-rule="evenodd" d="M64.5927 112.593C91.206 112.593 112.593 91.2059 112.593 64.5926C112.593 37.9793 91.206 16.5926 64.5927 16.5926C37.9793 16.5926 16.5927 37.9793 16.5927 64.5926C16.5927 91.2059 37.9793 112.593 64.5927 112.593ZM77.7927 72.1766C77.7927 65.1899 73.5953 62.7899 65.1953 61.7979C59.1953 60.9873 57.9953 59.3979 57.9953 56.5819C57.9953 53.7926 60.006 51.9953 63.9953 51.9953C67.5953 51.9953 69.606 53.1899 70.5927 56.1926C70.806 56.7899 71.4033 57.1793 72.006 57.1793H75.1847C75.3689 57.185 75.5523 57.1535 75.724 57.0864C75.8957 57.0194 76.052 56.9183 76.1836 56.7892C76.3151 56.6601 76.4192 56.5058 76.4895 56.3354C76.5598 56.1651 76.5949 55.9822 76.5927 55.7979V55.5899C75.782 51.1793 72.182 46.9819 67.5953 46.5926V42.1819C67.5953 41.3713 66.9927 40.7686 66.006 40.5926H63.366C62.5553 40.5926 61.8033 41.1899 61.5953 42.1819V46.5926C55.5953 47.3979 51.606 51.9899 51.606 56.9979C51.606 63.6006 55.5953 66.1819 63.9953 67.2006C69.606 68.1873 71.4087 69.3873 71.4087 72.5979C71.4087 75.7819 68.582 78.0006 64.806 78.0006C59.5793 78.0006 57.7873 75.7819 57.1847 72.7793C57.0033 72.0006 56.406 71.5793 55.8033 71.5793H52.3847C52.2004 71.577 52.0175 71.6121 51.8472 71.6824C51.6768 71.7527 51.5224 71.8568 51.3934 71.9883C51.2643 72.1199 51.1632 72.2762 51.0962 72.4479C51.0291 72.6196 50.9975 72.8031 51.0033 72.9873V73.2006C51.782 78.1819 54.9926 81.6006 61.5953 82.5873V87.0299C61.5953 87.8406 62.1927 88.3793 63.1847 88.5926H66.0647C66.8433 88.5926 67.3873 88.0486 67.5953 87.0299V82.5873C73.5953 81.6006 77.7927 77.5793 77.7927 72.1766ZM44.3953 87.1259C47.2974 89.7827 50.6958 91.8399 54.3953 93.1793C54.9927 93.6006 55.5953 94.3793 55.5953 94.9819V97.7979C55.5953 98.1873 55.5953 98.4006 55.382 98.5766C55.206 99.3873 54.3953 99.7766 53.5847 99.3873C46.308 97.0673 39.9576 92.4935 35.4513 86.327C30.9451 80.1605 28.5164 72.7208 28.5164 65.0833C28.5164 57.4457 30.9451 50.006 35.4513 43.8395C39.9576 37.6731 46.308 33.0993 53.5847 30.7793C53.798 30.5979 54.182 30.5979 54.3953 30.5979C55.206 30.7793 55.5953 31.3819 55.5953 32.1873V34.9819C55.5953 35.9953 55.206 36.5979 54.3953 36.9873C50.3048 38.4638 46.5898 40.8235 43.5147 43.8986C40.4396 46.9738 38.0798 50.6887 36.6033 54.7793C34.5395 60.3343 34.1779 66.3784 35.5649 72.1398C36.9518 77.9012 40.0243 83.1187 44.39 87.1259M73.798 31.5899C73.9793 30.7793 74.79 30.3899 75.6007 30.7793C81.1004 32.5646 86.0935 35.639 90.1636 39.7462C94.2337 43.8534 97.2627 48.8742 98.998 54.3899C104.998 73.3766 94.5873 93.6006 75.6007 99.6006C75.3873 99.7766 74.998 99.7766 74.79 99.7766C73.9793 99.6006 73.59 98.9979 73.59 98.1873V95.3979C73.59 94.3793 73.9793 93.7819 74.79 93.3873C78.879 91.9106 82.5926 89.5514 85.6667 86.4773C88.7408 83.4032 91.1 79.6896 92.5767 75.6006C93.949 71.9128 94.5771 67.9897 94.4246 64.0578C94.2722 60.1259 93.3422 56.2631 91.6884 52.6927C90.0346 49.1223 87.6897 45.9149 84.7893 43.2558C81.8889 40.5968 78.4903 38.5387 74.79 37.2006C74.1873 36.7793 73.59 36.0006 73.59 35.1899V32.4006C73.59 31.9793 73.59 31.7979 73.8033 31.5899" fill="#00C548"/>
</svg>
