<svg width="16" height="14" viewBox="0 0 16 14" fill="none" xmlns="http://www.w3.org/2000/svg">
<path d="M14 3.42857C13.6044 3.42857 13.2178 3.54587 12.8889 3.76563C12.56 3.9854 12.3036 4.29775 12.1522 4.66321C12.0009 5.02866 11.9613 5.43079 12.0384 5.81875C12.1156 6.20671 12.3061 6.56308 12.5858 6.84278C12.8655 7.12249 13.2219 7.31297 13.6098 7.39014C13.9978 7.46731 14.3999 7.42771 14.7654 7.27633C15.1308 7.12496 15.4432 6.86861 15.6629 6.53971C15.8827 6.21081 16 5.82413 16 5.42857C16 4.89814 15.7893 4.38943 15.4142 4.01436C15.0391 3.63929 14.5304 3.42857 14 3.42857ZM14 6.28571C13.8305 6.28571 13.6648 6.23544 13.5238 6.14126C13.3828 6.04708 13.273 5.91321 13.2081 5.75659C13.1432 5.59996 13.1263 5.42762 13.1593 5.26135C13.1924 5.09508 13.274 4.94235 13.3939 4.82248C13.5138 4.70261 13.6665 4.62097 13.8328 4.5879C13.9991 4.55483 14.1714 4.5718 14.328 4.63667C14.4846 4.70155 14.6185 4.81141 14.7127 4.95237C14.8069 5.09333 14.8571 5.25904 14.8571 5.42857C14.8571 5.6559 14.7668 5.87392 14.6061 6.03466C14.4453 6.19541 14.2273 6.28571 14 6.28571ZM4 5.42857C4 5.03301 3.8827 4.64633 3.66294 4.31743C3.44318 3.98853 3.13082 3.73219 2.76537 3.58081C2.39992 3.42944 1.99778 3.38983 1.60982 3.467C1.22186 3.54417 0.865492 3.73465 0.585787 4.01436C0.306082 4.29406 0.115601 4.65043 0.0384303 5.03839C-0.0387401 5.42635 0.000866566 5.82849 0.152242 6.19394C0.303617 6.55939 0.559962 6.87175 0.88886 7.09151C1.21776 7.31127 1.60444 7.42857 2 7.42857C2.53043 7.42857 3.03914 7.21786 3.41421 6.84278C3.78929 6.46771 4 5.959 4 5.42857ZM2 6.28571C1.83047 6.28571 1.66475 6.23544 1.5238 6.14126C1.38284 6.04708 1.27298 5.91321 1.2081 5.75659C1.14323 5.59996 1.12625 5.42762 1.15933 5.26135C1.1924 5.09508 1.27404 4.94235 1.39391 4.82248C1.51378 4.70261 1.66651 4.62097 1.83278 4.5879C1.99905 4.55483 2.17139 4.5718 2.32802 4.63667C2.48464 4.70155 2.6185 4.81141 2.71269 4.95237C2.80687 5.09333 2.85714 5.25904 2.85714 5.42857C2.85714 5.6559 2.76684 5.87392 2.60609 6.03466C2.44535 6.19541 2.22733 6.28571 2 6.28571ZM5.42857 4C5.82413 4 6.21081 3.8827 6.53971 3.66294C6.86861 3.44318 7.12496 3.13082 7.27633 2.76537C7.42771 2.39992 7.46731 1.99778 7.39014 1.60982C7.31297 1.22186 7.12249 0.865492 6.84279 0.585787C6.56308 0.306082 6.20672 0.115601 5.81875 0.0384303C5.43079 -0.0387401 5.02866 0.000866566 4.66321 0.152242C4.29775 0.303617 3.9854 0.559962 3.76563 0.88886C3.54587 1.21776 3.42857 1.60444 3.42857 2C3.42857 2.53043 3.63929 3.03914 4.01436 3.41421C4.38943 3.78929 4.89814 4 5.42857 4ZM5.42857 1.14286C5.5981 1.14286 5.76382 1.19313 5.90478 1.28731C6.04573 1.3815 6.15559 1.51536 6.22047 1.67199C6.28534 1.82861 6.30232 2.00095 6.26925 2.16722C6.23617 2.33349 6.15454 2.48622 6.03466 2.60609C5.91479 2.72597 5.76206 2.8076 5.59579 2.84067C5.42952 2.87375 5.25718 2.85677 5.10056 2.7919C4.94394 2.72702 4.81007 2.61716 4.71588 2.4762C4.6217 2.33525 4.57143 2.16953 4.57143 2C4.57143 1.77267 4.66174 1.55465 4.82248 1.39391C4.98323 1.23316 5.20124 1.14286 5.42857 1.14286ZM10.5714 4C10.967 4 11.3537 3.8827 11.6826 3.66294C12.0115 3.44318 12.2678 3.13082 12.4192 2.76537C12.5706 2.39992 12.6102 1.99778 12.533 1.60982C12.4558 1.22186 12.2653 0.865492 11.9856 0.585787C11.7059 0.306082 11.3496 0.115601 10.9616 0.0384303C10.5736 -0.0387401 10.1715 0.000866566 9.80606 0.152242C9.44061 0.303617 9.12825 0.559962 8.90849 0.88886C8.68873 1.21776 8.57143 1.60444 8.57143 2C8.57143 2.53043 8.78214 3.03914 9.15722 3.41421C9.53229 3.78929 10.041 4 10.5714 4ZM10.5714 1.14286C10.741 1.14286 10.9067 1.19313 11.0476 1.28731C11.1886 1.3815 11.2985 1.51536 11.3633 1.67199C11.4282 1.82861 11.4452 2.00095 11.4121 2.16722C11.379 2.33349 11.2974 2.48622 11.1775 2.60609C11.0576 2.72597 10.9049 2.8076 10.7386 2.84067C10.5724 2.87375 10.4 2.85677 10.2434 2.7919C10.0868 2.72702 9.95293 2.61716 9.85874 2.4762C9.76456 2.33525 9.71429 2.16953 9.71429 2C9.71429 1.77267 9.80459 1.55465 9.96534 1.39391C10.1261 1.23316 10.3441 1.14286 10.5714 1.14286ZM12.2229 8.34714C11.9326 8.18702 11.6768 7.97123 11.47 7.71213C11.2632 7.45302 11.1096 7.15569 11.0179 6.83714C10.8279 6.18375 10.4309 5.60967 9.88674 5.20117C9.34254 4.79268 8.68046 4.57183 8 4.57183C7.31954 4.57183 6.65746 4.79268 6.11326 5.20117C5.56906 5.60967 5.17214 6.18375 4.98214 6.83714C4.79861 7.47812 4.36834 8.02013 3.78571 8.34429C3.2268 8.64672 2.78466 9.12685 2.52923 9.70875C2.27381 10.2906 2.21966 10.9411 2.37537 11.5572C2.53108 12.1733 2.88776 12.72 3.38898 13.1106C3.8902 13.5013 4.50737 13.7137 5.14286 13.7143C5.52368 13.7153 5.90078 13.6393 6.25143 13.4907C7.36935 13.0298 8.62422 13.0298 9.74214 13.4907C10.4193 13.7852 11.1841 13.8061 11.8763 13.5491C12.5685 13.292 13.1343 12.777 13.4551 12.112C13.7759 11.4469 13.8267 10.6835 13.597 9.98175C13.3673 9.28002 12.8748 8.69446 12.2229 8.34786V8.34714ZM10.8571 12.5714C10.6251 12.5716 10.3955 12.5247 10.1821 12.4336C8.78259 11.8555 7.21099 11.8555 5.81143 12.4336C5.40471 12.6087 4.94601 12.6196 4.53141 12.4641C4.1168 12.3086 3.77846 11.9987 3.58725 11.5993C3.39604 11.1999 3.36681 10.742 3.50566 10.3215C3.64451 9.901 3.94069 9.55056 4.33214 9.34357C4.75303 9.11113 5.12397 8.79801 5.42376 8.42211C5.72355 8.04621 5.9463 7.61491 6.07929 7.15286C6.20004 6.73685 6.4526 6.3713 6.79898 6.11117C7.14535 5.85104 7.56682 5.7104 8 5.7104C8.43318 5.7104 8.85465 5.85104 9.20102 6.11117C9.5474 6.3713 9.79996 6.73685 9.92071 7.15286C10.0541 7.61577 10.2776 8.0478 10.5782 8.42421C10.8789 8.80062 11.2509 9.11401 11.6729 9.34643C12.0099 9.52719 12.2768 9.81545 12.4311 10.1654C12.5855 10.5153 12.6183 10.9068 12.5246 11.2775C12.4308 11.6483 12.2157 11.977 11.9136 12.2115C11.6114 12.446 11.2396 12.5726 10.8571 12.5714Z" fill="#737373"/>
</svg>
